<svg xmlns="http://www.w3.org/2000/svg" width="94" height="35" viewBox="0 0 94 35" fill="none"><path d="M39.1406 28.5706C39.2902 21.6341 39.1406 6.2486 39.1406 6.2486H44.3345C44.3345 6.2486 44.1234 21.2769 44.2729 27.0537C47.0348 26.4892 50.9973 25.6867 53.4909 24.9414C53.7899 26.1938 53.9394 27.4991 53.7899 28.7514C48.297 28.5442 41.6958 28.575 39.1406 28.575V28.5706Z" fill="#034144"></path><path d="M56.5479 8.66072C56.5479 7.32016 57.5989 6.2486 59.2174 6.2486C60.8358 6.2486 61.8869 7.32016 61.8869 8.66072C61.8869 10.0013 60.8358 11.0111 59.2174 11.0111C57.5989 11.0111 56.5479 9.93954 56.5479 8.66072ZM56.6666 13.0969H61.6802V28.5442H56.6666V13.0969Z" fill="#034144"></path><path d="M80.0231 23.6317C79.425 26.7847 76.5708 28.5397 72.7578 28.5397C67.476 28.5397 64.3535 25.1751 64.3535 20.2671C64.3535 15.3591 67.5068 12.2017 72.5204 12.2017C77.5339 12.2017 80.0539 15.2356 79.9352 20.0598L79.337 20.417H69.5518V20.5934C69.5518 25.1178 70.3918 27.4682 72.8546 27.4682C74.1432 27.4682 75.1943 26.6656 75.1943 24.5225C75.1943 24.0154 75.1635 23.6582 75.0755 23.2128L75.6165 22.9747L80.0275 23.6317H80.0231ZM69.5782 19.1646H75.4669C75.5285 16.4703 75.0931 13.2733 72.7051 13.2733C70.9327 13.2733 69.7937 14.9975 69.5826 19.1646H69.5782Z" fill="#034144"></path><path d="M88.2608 13.1278L92.3464 13.0396C92.2848 13.7231 92.254 14.0229 92.3156 14.7064C90.9347 14.6491 89.5845 14.6182 88.2652 14.6182C88.2344 18.9045 88.3575 28.5486 88.3575 28.5486H83.3176C83.3176 28.5486 83.3483 19.5615 83.3176 14.6491C82.5963 14.68 81.8751 14.68 81.1582 14.7064C81.2154 14.0229 81.2154 13.7539 81.1582 13.0396C81.8751 13.0704 82.5963 13.0704 83.3176 13.0969C83.5287 8.24619 86.1718 6.42938 90.2794 6.42938C91.48 6.42938 92.8301 6.57931 94 6.90563C93.8504 8.12713 93.459 9.55588 92.7378 10.7156H91.7483C91.5987 9.22956 91.2689 7.47008 90.1562 7.47008C88.8061 7.47008 88.3267 8.83709 88.2652 13.1233L88.2608 13.1278Z" fill="#034144"></path><path d="M29.7472 11.9063L23.9112 16.8143L29.3074 15.6898L28.4938 20.0819L18.946 23.7861L27.9968 22.9306L27.4515 27.0934L17.2396 29.7965L27.1964 30.0391L26.5103 34.0607L0 35C0 35 0.013194 34.9956 0.0175919 34.9912C10.6121 27.5652 28.0452 6.83949 31.1677 0L29.7472 11.9063Z" fill="#00AFAA"></path><path d="M31.1677 0C28.0452 6.83949 10.6121 27.5652 0.0175919 34.9912C0.013194 34.9956 0.00439787 34.9956 0 35L1.25339 24.84L5.84477 25.9645L1.33255 21.837L2.61673 14.4374L9.72368 17.5022L3.39076 9.18987L4.3275 0.80257L8.37354 0.718786L11.8347 7.69938L11.9182 0.661459L17.8905 0.542396L18.924 8.73567L22.3412 0.286633L31.1677 0Z" fill="#1D938D"></path></svg>